<svg width="40" height="40" viewBox="0 0 40 40" fill="none" xmlns="http://www.w3.org/2000/svg">
<path d="M39.9793 0.948659C40.1066 0.402713 39.6274 -0.0925292 39.0772 0.0147381C38.979 0.033879 38.9148 0.0467699 38.9104 0.048723L1.2284 15.3023C0.501592 15.5966 0.0314283 16.2666 0.00150591 17.0509C-0.0284164 17.8354 0.389403 18.5394 1.09191 18.8882L9.68548 23.1549L12.0286 38.1021C11.9618 38.4214 12.101 38.7505 12.3801 38.9245C12.5072 39.0038 12.6505 39.0428 12.7932 39.0428C12.8018 39.0428 12.8104 39.0426 12.819 39.0423C12.8276 39.0426 12.8362 39.0428 12.8447 39.0428C13.1154 39.0428 13.3613 38.903 13.5023 38.6829L22.4423 31.0237L29.4172 35.5958C29.7416 35.8085 30.1165 35.9172 30.4939 35.9172C30.7425 35.9172 30.9921 35.87 31.2289 35.7743C31.8261 35.533 32.2676 35.0136 32.4098 34.385L39.9781 0.953347C39.9784 0.952565 39.9788 0.951003 39.9793 0.948659ZM19.8466 15.5085C19.5869 15.164 19.097 15.0954 18.7524 15.355L10.3099 21.7203L1.78685 17.4887C1.57575 17.3838 1.55989 17.1893 1.56294 17.1105C1.56598 17.0317 1.59645 16.8391 1.81474 16.7507L34.1073 3.67862L24.3783 11.0901C24.035 11.3516 23.9688 11.8419 24.2302 12.1851C24.4918 12.5285 24.982 12.5948 25.3252 12.3332L32.5265 6.84727L15.4289 25.3188C15.3534 25.3972 15.2934 25.4923 15.2553 25.6001C15.2551 25.6005 13.0119 34.2858 13.0119 34.2858L11.2391 22.9766L19.6931 16.6027C20.0377 16.343 20.1063 15.853 19.8466 15.5085ZM14.2222 36.0085L16.4796 27.1148L21.0818 30.1317L14.2222 36.0085ZM30.886 34.0399C30.8453 34.2197 30.7167 34.296 30.6437 34.3254C30.571 34.3548 30.4265 34.389 30.2739 34.289L17.1925 25.7138L37.8144 3.43448L30.886 34.0399Z" fill="#515151"/>
<path d="M22.0488 14.6178C21.7183 14.6178 21.4149 14.401 21.309 14.0876C21.2061 13.7831 21.3038 13.4364 21.5532 13.2328C21.8 13.0312 22.1508 13.0013 22.4292 13.1552C22.7105 13.3107 22.8675 13.6338 22.821 13.9513C22.7656 14.3292 22.4306 14.6178 22.0488 14.6178Z" fill="#515151"/>
</svg>
