<svg width="40" height="40" viewBox="0 0 40 40" fill="none" xmlns="http://www.w3.org/2000/svg">
<path d="M15.9917 26.4949L12.7933 39.1994L22.2716 30.88" fill="#5A17EE"/>
<path d="M39.2194 0.785034L15.9917 26.4949L29.8456 35.799C30.5361 36.2628 31.4655 35.8771 31.648 35.0511L39.2194 0.785034L1.52147 16.4193C0.574583 16.812 0.524191 18.1688 1.43928 18.6342L10.3946 23.1896" fill="#8471FF"/>
<path d="M19.2228 16.3705L10.3947 23.1896L12.8443 39.1994L15.9918 26.4948L39.2195 0.785034L24.8517 11.9986" fill="#C7BEFF"/>
<path d="M39.9793 0.971918C40.1066 0.412586 39.6274 -0.0947978 39.0772 0.0150995C38.979 0.0347097 38.9148 0.0479165 38.9104 0.0499176L1.2284 15.6775C0.501592 15.979 0.0314282 16.6654 0.00150591 17.469C-0.0284164 18.2727 0.389402 18.9939 1.09191 19.3513L9.68548 23.7226L12.0286 39.0362C11.9618 39.3634 12.101 39.7006 12.3801 39.8788C12.5072 39.9601 12.6505 40 12.7932 40C12.8018 40 12.8104 39.9998 12.819 39.9995C12.8276 39.9998 12.8362 40 12.8447 40C13.1154 40 13.3613 39.8568 13.5023 39.6313L22.4423 31.7843L29.4172 36.4686C29.7416 36.6864 30.1165 36.7978 30.4939 36.7978C30.7425 36.7978 30.9921 36.7494 31.2289 36.6514C31.8261 36.4042 32.2675 35.8721 32.4098 35.228L39.9781 0.97672C39.9784 0.97592 39.9788 0.974319 39.9793 0.971918ZM19.8466 15.8887C19.5869 15.5358 19.097 15.4655 18.7524 15.7314L10.3099 22.2528L1.78685 17.9175C1.57575 17.81 1.55989 17.6107 1.56294 17.53C1.56598 17.4493 1.59645 17.2519 1.81474 17.1614L34.1073 3.76881L24.3783 11.362C24.035 11.6299 23.9687 12.1322 24.2302 12.4838C24.4918 12.8356 24.982 12.9036 25.3252 12.6356L32.5265 7.01514L15.4289 25.9396C15.3534 26.0198 15.2934 26.1173 15.2553 26.2278C15.2551 26.2282 13.0119 35.1264 13.0119 35.1264L11.2391 23.5399L19.6931 17.0097C20.0377 16.7436 20.1063 16.2417 19.8466 15.8887ZM14.2222 36.8913L16.4796 27.7796L21.0818 30.8704L14.2222 36.8913ZM30.886 34.8745C30.8453 35.0586 30.7167 35.1368 30.6437 35.167C30.571 35.1971 30.4265 35.2322 30.2739 35.1296L17.1925 26.3442L37.8143 3.51868L30.886 34.8745Z" fill="black"/>
<path d="M22.0488 14.9761C21.7183 14.9761 21.4149 14.754 21.309 14.4329C21.2061 14.121 21.3038 13.7658 21.5532 13.5571C21.8 13.3506 22.1508 13.32 22.4292 13.4776C22.7105 13.637 22.8675 13.968 22.821 14.2933C22.7656 14.6805 22.4306 14.9761 22.0488 14.9761Z" fill="black"/>
</svg>
