<svg width="50" height="50" viewBox="0 0 50 50" fill="none" xmlns="http://www.w3.org/2000/svg">
<g clip-path="url(#clip0_246_15)">
<path d="M42.9688 39.982V41.7395C42.9688 42.1553 42.8032 42.5547 42.5064 42.8454C41.4227 43.9089 40.2428 44.874 38.9805 45.727C38.7398 45.8899 38.4258 45.8986 38.1794 45.7453C34.3529 43.3664 29.837 41.992 25 41.992C20.2072 41.992 15.7299 43.3416 11.9259 45.6804C11.6142 45.8719 11.2186 45.8635 10.9165 45.6568C9.68285 44.8145 8.52928 43.8639 7.46803 42.8198C7.06635 42.4246 6.83594 41.8875 6.83594 41.3237V39.77C6.83594 37.7611 5.20744 36.1326 3.19862 36.1326C2.83508 36.1326 2.50435 35.9228 2.34985 35.594C0.842667 32.3774 0 28.7871 0 24.9998C0 11.2025 11.1774 0.0154734 24.9714 -0.000166851C38.7745 -0.0158071 50.0332 11.2578 50 25.0612C49.9908 28.8325 49.1463 32.4068 47.6421 35.61C47.4922 35.9293 47.1706 36.1326 46.8182 36.1326C44.6922 36.1326 42.9688 37.8561 42.9688 39.982Z" fill="#FFE14D"/>
<path d="M28.9062 26.3672C28.9062 28.5244 27.1572 30.2734 25 30.2734C22.8428 30.2734 21.0938 28.5244 21.0938 26.3672C21.0938 24.21 22.8428 22.4609 25 22.4609C27.1572 22.4609 28.9062 24.21 28.9062 26.3672Z" fill="#5A17EE"/>
<path d="M34.1797 1.95312C34.1797 3.03192 33.3054 3.90625 32.2266 3.90625C31.583 3.90625 31.0139 3.59344 30.658 3.11356C27.6424 3.82462 25.3906 6.5361 25.3906 9.76562H23.4375C23.4375 5.53017 26.4492 1.98479 30.4436 1.15852C30.748 0.476456 31.4312 0 32.2266 0C33.3054 0 34.1797 0.874329 34.1797 1.95312Z" fill="#013F69"/>
<path d="M32.5195 0.488281C33.0589 0.488281 33.4961 0.925445 33.4961 1.46484C33.4961 2.00424 33.0589 2.44141 32.5195 2.44141C31.9801 2.44141 31.543 2.00424 31.543 1.46484C31.543 0.925445 31.9801 0.488281 32.5195 0.488281Z" fill="#015081"/>
<path d="M34.1796 26.8879H15.625C10.2317 26.8879 5.85933 22.5159 5.85933 17.1223V16.1457C5.85933 10.7525 10.2317 6.38007 15.625 6.38007H34.1796C39.5729 6.38007 43.9453 10.7525 43.9453 16.1457V17.1223C43.9453 22.5159 39.5729 26.8879 34.1796 26.8879ZM47.6551 35.5808C46.3783 38.3098 44.6235 40.7696 42.498 42.8531L39.1883 39.5439C39.1536 39.5092 39.1204 39.4733 39.0873 39.4379V43.9453C39.0873 44.5694 39.0281 45.1794 38.9164 45.7706C34.9384 48.4413 30.1513 50 25 50C19.7639 50 14.9047 48.3894 10.8886 45.6379C10.7925 45.0878 10.7421 44.5225 10.7421 43.9453V39.6133L7.50194 42.8531C5.37639 40.7696 3.62163 38.3098 2.34485 35.5808L4.59666 33.329C5.47672 32.4493 6.67186 32.0778 7.81856 32.2132C7.92957 30.1552 9.63321 28.5206 11.7187 28.5206C13.3014 28.5206 14.6629 29.462 15.2767 30.8151C16.7892 29.8538 18.5833 29.2969 20.5078 29.2969H29.322C31.578 29.2969 33.6551 30.0625 35.3084 31.3473C35.7772 29.715 37.2799 28.5206 39.0625 28.5206C41.1434 28.5206 42.8436 30.1475 42.9615 32.1991C43.8518 32.2719 44.7219 32.6477 45.4033 33.329L47.6551 35.5808Z" fill="#5A17EE"/>
<path d="M19.4336 26.8879C14.04 26.8879 9.66794 22.5159 9.66794 17.1223V16.1457C9.66794 10.7525 14.04 6.38007 19.4336 6.38007H34.1797C39.5733 6.38007 43.9453 10.7525 43.9453 16.1457V17.1223C43.9453 22.5159 39.5733 26.8879 34.1797 26.8879H19.4336ZM11.7187 36.3331C10.2848 36.3331 9.03165 35.5594 8.35225 34.4078C7.73579 34.584 7.15405 34.9148 6.66844 35.4008L3.80627 38.2629C4.85608 39.9364 6.09814 41.4768 7.50195 42.8531L10.8116 39.5439C11.6901 38.6654 12.0624 37.4725 11.9289 36.327C11.8591 36.3308 11.7893 36.3331 11.7187 36.3331ZM45.4033 33.329C44.7219 32.6477 43.8518 32.2712 42.9615 32.1983C42.966 32.2738 42.9687 32.3498 42.9687 32.4268C42.9687 34.124 41.8857 35.5682 40.3732 36.1069C40.5632 36.6047 40.8588 37.0712 41.2601 37.4721L44.469 40.6814C45.7252 39.1239 46.7979 37.413 47.6551 35.5808L45.4033 33.329ZM35.1562 32.4268C35.1562 32.0354 35.2146 31.6578 35.3214 31.3015C33.678 30.0442 31.6234 29.2969 29.3945 29.2969H24.414C19.0204 29.2969 14.6484 33.6689 14.6484 39.0625V43.9453C14.6484 45.4605 14.9936 46.8948 15.6093 48.1743C18.5089 49.3507 21.6781 50 25 50C30.1872 50 35.0055 48.4199 38.9995 45.7153C39.1048 45.1412 39.1601 44.5495 39.1601 43.9453V39.0625C39.1601 38.1107 39.0232 37.1906 38.7695 36.3209C36.7492 36.1709 35.1562 34.4852 35.1562 32.4268Z" fill="#8471FF"/>
<path d="M33.3984 19.0754H16.6016C14.1747 19.0754 12.207 17.1081 12.207 14.6808C12.207 12.2539 14.1747 10.2863 16.6016 10.2863H33.3984C35.8253 10.2863 37.793 12.2539 37.793 14.6808C37.793 17.1081 35.8253 19.0754 33.3984 19.0754Z" fill="#013F69"/>
<path d="M33.3984 19.0754H19.043C16.6161 19.0754 14.6484 17.1081 14.6484 14.6808C14.6484 12.2539 16.6161 10.2863 19.043 10.2863H33.3984C35.8253 10.2863 37.793 12.2539 37.793 14.6808C37.793 17.1081 35.8253 19.0754 33.3984 19.0754Z" fill="#015081"/>
<path d="M19.043 12.2394C17.6945 12.2394 16.6016 13.3327 16.6016 14.6808C16.6016 16.0293 17.6945 17.1223 19.043 17.1223C20.3915 17.1223 21.4844 16.0293 21.4844 14.6808C21.4844 13.3327 20.3915 12.2394 19.043 12.2394ZM19.043 15.6574C18.5036 15.6574 18.0664 15.2202 18.0664 14.6808C18.0664 14.1414 18.5036 13.7043 19.043 13.7043C19.5824 13.7043 20.0195 14.1414 20.0195 14.6808C20.0195 15.2202 19.5824 15.6574 19.043 15.6574ZM30.7617 12.2394C29.4132 12.2394 28.3203 13.3327 28.3203 14.6808C28.3203 16.0293 29.4132 17.1223 30.7617 17.1223C32.1102 17.1223 33.2031 16.0293 33.2031 14.6808C33.2031 13.3327 32.1102 12.2394 30.7617 12.2394ZM30.7617 15.6574C30.2223 15.6574 29.7852 15.2202 29.7852 14.6808C29.7852 14.1414 30.2223 13.7043 30.7617 13.7043C31.3011 13.7043 31.7383 14.1414 31.7383 14.6808C31.7383 15.2202 31.3011 15.6574 30.7617 15.6574Z" fill="#84DEEA"/>
<path d="M13.6719 32.4268C13.6719 33.5052 12.7975 34.3799 11.7188 34.3799C10.64 34.3799 9.76562 33.5052 9.76562 32.4268C9.76562 31.348 10.64 30.4737 11.7188 30.4737C12.7975 30.4737 13.6719 31.348 13.6719 32.4268ZM39.0625 30.4737C37.9837 30.4737 37.1094 31.348 37.1094 32.4268C37.1094 33.5052 37.9837 34.3799 39.0625 34.3799C40.1413 34.3799 41.0156 33.5052 41.0156 32.4268C41.0156 31.348 40.1413 30.4737 39.0625 30.4737Z" fill="#84DEEA"/>
<path d="M13.6719 32.4268C13.6719 33.2462 13.1668 33.9466 12.4512 34.2365C12.0987 34.0935 11.7977 33.8505 11.5826 33.543C11.5089 33.4373 11.5864 33.297 11.7157 33.2973H11.7188C12.2261 33.2973 12.6324 32.8632 12.5862 32.3463C12.5534 31.9824 12.286 31.6711 11.9316 31.5823C11.8572 31.5636 11.7844 31.5556 11.7134 31.5559C11.5852 31.5567 11.5093 31.4156 11.5826 31.3107C11.7977 31.0028 12.0987 30.7598 12.4516 30.6168C13.1668 30.9067 13.6719 31.6071 13.6719 32.4268ZM39.7949 30.6168C39.4421 30.7598 39.1411 31.0028 38.9263 31.3107C38.8527 31.4156 38.929 31.5567 39.0568 31.5559C39.1277 31.5556 39.201 31.5639 39.2754 31.5823C39.6297 31.6711 39.8972 31.9824 39.9296 32.3463C39.9761 32.8632 39.5699 33.2973 39.0625 33.2973C39.0614 33.2973 39.0602 33.2973 39.0591 33.2973C38.9301 33.297 38.8523 33.4373 38.9263 33.543C39.1411 33.8509 39.4421 34.0939 39.7949 34.2365C40.5102 33.9466 41.0156 33.2462 41.0156 32.4268C41.0156 31.6074 40.5106 30.9067 39.7949 30.6168Z" fill="#D3F1F5"/>
<path d="M32.2266 32.2266C32.766 32.2266 33.2031 32.6637 33.2031 33.2031C33.2031 33.7425 32.766 34.1797 32.2266 34.1797C31.6872 34.1797 31.25 33.7425 31.25 33.2031C31.25 32.6637 31.6872 32.2266 32.2266 32.2266ZM28.3203 33.2031C28.3203 33.7425 28.7575 34.1797 29.2969 34.1797C29.8363 34.1797 30.2734 33.7425 30.2734 33.2031C30.2734 32.6637 29.8363 32.2266 29.2969 32.2266C28.7575 32.2266 28.3203 32.6637 28.3203 33.2031Z" fill="#5A17EE"/>
<path d="M26.3672 32.2266C26.9066 32.2266 27.3438 32.6637 27.3438 33.2031C27.3438 33.7425 26.9066 34.1797 26.3672 34.1797C25.8278 34.1797 25.3906 33.7425 25.3906 33.2031C25.3906 32.6637 25.8278 32.2266 26.3672 32.2266Z" fill="#84DEEA"/>
</g>
<defs>
<clipPath id="clip0_246_15">
<rect width="50" height="50" fill="white"/>
</clipPath>
</defs>
</svg>
