<svg width="360" height="221" viewBox="0 0 360 221" fill="none" xmlns="http://www.w3.org/2000/svg">
<path d="M318.512 66.7467C319.533 65.5156 321.515 65.9225 321.969 67.4566L387.042 287.479C387.47 288.927 386.201 290.309 384.721 290.006L173.131 246.553C171.652 246.249 171.03 244.479 171.994 243.317L318.512 66.7467Z" fill="#B5179E" fill-opacity="0.5"/>
<path d="M121.858 72.9427C121.16 71.2867 122.831 69.6226 124.484 70.3263L309.24 148.961C310.546 149.517 310.874 151.217 309.869 152.218L203.041 258.639C202.036 259.64 200.337 259.306 199.786 257.998L121.858 72.9427Z" fill="#F72585" fill-opacity="0.3"/>
<path d="M137.199 85.3274C138.722 84.6612 140.346 86.0364 139.94 87.6485L79.4667 327.622C79.1051 329.057 77.3641 329.616 76.2348 328.66L-90.0337 187.846C-91.163 186.889 -90.8984 185.08 -89.5425 184.487L137.199 85.3274Z" fill="#4CC9F0" fill-opacity="0.6"/>
<path d="M221.797 148.433C223.52 147.987 224.923 149.846 224.022 151.381L140.316 294.044C139.594 295.274 137.853 295.375 136.994 294.237L60.5579 192.97C59.6987 191.832 60.2729 190.186 61.6537 189.829L221.797 148.433Z" fill="#E8EEF4" fill-opacity="0.3"/>
<circle cx="240" cy="112" r="26" fill="#FF9E00" fill-opacity="0.3"/>
<circle cx="122.5" cy="170.5" r="10.5" fill="#4CC9F0" fill-opacity="0.3"/>
</svg>
