<svg width="314" height="239" viewBox="0 0 314 239" fill="none" xmlns="http://www.w3.org/2000/svg">
<circle cx="227.5" cy="64.4999" r="10.5" fill="#4CC9F0" fill-opacity="0.5"/>
<path d="M121.568 113.961C120.303 114.99 118.405 114.155 118.309 112.528L104.253 -125.928C104.165 -127.42 105.686 -128.478 107.055 -127.876L306.381 -40.1967C307.75 -39.5947 307.998 -37.7586 306.838 -36.8148L121.568 113.961Z" fill="#F72585" fill-opacity="0.3"/>
<path d="M41.1063 118.732C39.3342 118.205 39.164 115.763 40.846 114.995L306.22 -6.06024C307.49 -6.63966 308.948 -5.77236 309.045 -4.37963L323.269 199.761C323.366 201.154 322.042 202.215 320.704 201.817L41.1063 118.732Z" fill="#4895EF" fill-opacity="0.3"/>
<path d="M131.488 29.3955C129.694 28.88 129.521 26.4055 131.227 25.6462L396.659 -92.5419C397.927 -93.1067 399.371 -92.2389 399.467 -90.8538L413.292 107.572C413.389 108.957 412.079 110.017 410.745 109.633L131.488 29.3955Z" fill="#E8EEF4" fill-opacity="0.3"/>
<path d="M245.512 36.3894C244.82 35.0667 245.768 33.4795 247.261 33.4622L429.257 31.3641C430.821 31.3461 431.799 33.0478 430.997 34.3898L333.387 197.752C332.586 199.094 330.623 199.038 329.899 197.653L245.512 36.3894Z" fill="#4361EE" fill-opacity="0.6"/>
</svg>
